<mxfile host="65bd71144e">
    <diagram id="R2lEEEUBdFMjLlhIrx00" name="Page-1">
        <mxGraphModel dx="3074" dy="2184" grid="1" gridSize="10" guides="1" tooltips="1" connect="1" arrows="1" fold="1" page="1" pageScale="1" pageWidth="850" pageHeight="1100" math="0" shadow="0" extFonts="Permanent Marker^https://fonts.googleapis.com/css?family=Permanent+Marker">
            <root>
                <mxCell id="0"/>
                <mxCell id="1" parent="0"/>
                <mxCell id="124" value="" style="ellipse;shape=cloud;whiteSpace=wrap;html=1;fillColor=#f5f5f5;fontColor=#CC0066;strokeColor=#000000;strokeWidth=2;labelPosition=center;verticalLabelPosition=top;align=center;verticalAlign=bottom;fontSize=20;" parent="1" vertex="1">
                    <mxGeometry x="-780" y="20" width="960" height="590" as="geometry"/>
                </mxCell>
                <mxCell id="131" value="Invoice" style="swimlane;fontStyle=0;childLayout=stackLayout;horizontal=1;startSize=30;horizontalStack=0;resizeParent=1;resizeParentMax=0;resizeLast=0;collapsible=1;marginBottom=0;fillColor=#ffe6cc;strokeColor=#000000;fontSize=20;strokeWidth=2;" parent="1" vertex="1">
                    <mxGeometry x="-377.75" y="466" width="225.5" height="60" as="geometry"/>
                </mxCell>
                <mxCell id="139" style="edgeStyle=none;html=1;exitX=0.5;exitY=1;exitDx=0;exitDy=0;entryX=0.5;entryY=0;entryDx=0;entryDy=0;strokeWidth=2;endArrow=block;endFill=1;" parent="1" source="137" target="138" edge="1">
                    <mxGeometry relative="1" as="geometry"/>
                </mxCell>
                <mxCell id="137" value="Payment" style="rounded=0;whiteSpace=wrap;html=1;labelBackgroundColor=none;labelBorderColor=none;spacing=0;fontSize=20;fillColor=#d5e8d4;strokeColor=#82b366;sketch=0;glass=0;fontFamily=Verdana;strokeWidth=2;" parent="1" vertex="1">
                    <mxGeometry x="-365" y="186" width="200" height="60" as="geometry"/>
                </mxCell>
                <mxCell id="149" style="edgeStyle=none;html=1;exitX=0.5;exitY=1;exitDx=0;exitDy=0;entryX=0.5;entryY=0;entryDx=0;entryDy=0;endArrow=block;endFill=1;strokeWidth=2;" parent="1" source="138" target="131" edge="1">
                    <mxGeometry relative="1" as="geometry"/>
                </mxCell>
                <mxCell id="138" value="Has" style="rhombus;whiteSpace=wrap;html=1;fontSize=20;fillColor=none;strokeWidth=2;strokeColor=#000000;fontFamily=Verdana;" parent="1" vertex="1">
                    <mxGeometry x="-320" y="300" width="110" height="100" as="geometry"/>
                </mxCell>
                <mxCell id="150" style="edgeStyle=none;html=1;exitX=0.5;exitY=0;exitDx=0;exitDy=0;entryX=0.5;entryY=1;entryDx=0;entryDy=0;endArrow=block;endFill=1;strokeWidth=2;" parent="1" source="140" target="142" edge="1">
                    <mxGeometry relative="1" as="geometry"/>
                </mxCell>
                <mxCell id="140" value="Customer" style="rounded=0;whiteSpace=wrap;html=1;labelBackgroundColor=none;labelBorderColor=none;spacing=0;fontSize=20;fillColor=#dae8fc;strokeColor=#6c8ebf;sketch=0;glass=0;fontFamily=Verdana;strokeWidth=2;" parent="1" vertex="1">
                    <mxGeometry x="-555" y="376" width="120" height="60" as="geometry"/>
                </mxCell>
                <mxCell id="147" style="edgeStyle=none;html=1;exitX=0.5;exitY=0;exitDx=0;exitDy=0;entryX=0.5;entryY=1;entryDx=0;entryDy=0;endArrow=block;endFill=1;strokeWidth=2;" parent="1" source="141" target="145" edge="1">
                    <mxGeometry relative="1" as="geometry"/>
                </mxCell>
                <mxCell id="141" value="Admin" style="rounded=0;whiteSpace=wrap;html=1;labelBackgroundColor=none;labelBorderColor=none;spacing=0;fontSize=20;fillColor=#dae8fc;strokeColor=#6c8ebf;sketch=0;glass=0;fontFamily=Verdana;strokeWidth=2;" parent="1" vertex="1">
                    <mxGeometry x="-90" y="376" width="120" height="60" as="geometry"/>
                </mxCell>
                <mxCell id="144" style="edgeStyle=none;html=1;exitX=1;exitY=0.5;exitDx=0;exitDy=0;entryX=0;entryY=0.5;entryDx=0;entryDy=0;endArrow=block;endFill=1;strokeWidth=2;" parent="1" source="142" target="137" edge="1">
                    <mxGeometry relative="1" as="geometry"/>
                </mxCell>
                <mxCell id="142" value="Makes" style="rhombus;whiteSpace=wrap;html=1;fontSize=20;fillColor=none;strokeWidth=2;strokeColor=#000000;fontFamily=Verdana;" parent="1" vertex="1">
                    <mxGeometry x="-550" y="166" width="110" height="100" as="geometry"/>
                </mxCell>
                <mxCell id="148" style="edgeStyle=none;html=1;exitX=0;exitY=0.5;exitDx=0;exitDy=0;entryX=1;entryY=0.5;entryDx=0;entryDy=0;endArrow=block;endFill=1;strokeWidth=2;" parent="1" source="145" target="137" edge="1">
                    <mxGeometry relative="1" as="geometry"/>
                </mxCell>
                <mxCell id="145" value="Records" style="rhombus;whiteSpace=wrap;html=1;fontSize=20;fillColor=none;strokeWidth=2;strokeColor=#000000;fontFamily=Verdana;" parent="1" vertex="1">
                    <mxGeometry x="-85" y="166" width="110" height="100" as="geometry"/>
                </mxCell>
            </root>
        </mxGraphModel>
    </diagram>
</mxfile>